<?xml version="1.0" encoding="UTF-8" standalone="no"?>
<!-- Created with Inkscape (http://www.inkscape.org/) -->

<svg
   xmlns:dc="http://purl.org/dc/elements/1.1/"
   xmlns:cc="http://creativecommons.org/ns#"
   xmlns:rdf="http://www.w3.org/1999/02/22-rdf-syntax-ns#"
   xmlns:svg="http://www.w3.org/2000/svg"
   xmlns="http://www.w3.org/2000/svg"
   xmlns:sodipodi="http://sodipodi.sourceforge.net/DTD/sodipodi-0.dtd"
   xmlns:inkscape="http://www.inkscape.org/namespaces/inkscape"
   version="1.1"
   id="svg2"
   width="454.99368"
   height="546.97473"
   viewBox="0 0 454.99368 546.97474"
   sodipodi:docname="Sony Pix 2013.svg"
   inkscape:version="0.92.4 (5da689c313, 2019-01-14)">
  <metadata
     id="metadata8">
    <rdf:RDF>
      <cc:Work
         rdf:about="">
        <dc:format>image/svg+xml</dc:format>
        <dc:type
           rdf:resource="http://purl.org/dc/dcmitype/StillImage" />
        <dc:title />
      </cc:Work>
    </rdf:RDF>
  </metadata>
  <defs
     id="defs6" />
  <sodipodi:namedview
     pagecolor="#ffffff"
     bordercolor="#666666"
     borderopacity="1"
     objecttolerance="10"
     gridtolerance="10"
     guidetolerance="10"
     inkscape:pageopacity="0"
     inkscape:pageshadow="2"
     inkscape:window-width="1366"
     inkscape:window-height="706"
     id="namedview4"
     showgrid="false"
     inkscape:zoom="0.57875767"
     inkscape:cx="295.16858"
     inkscape:cy="270.79184"
     inkscape:window-x="-8"
     inkscape:window-y="32"
     inkscape:window-maximized="1"
     inkscape:current-layer="g12" />
  <g
     id="g12"
     transform="translate(-12.48,-11.36)">
    <path
       style="fill:#a4a4a5;stroke-width:0.31999999"
       d="M 12.693557,558.18686 C 12.576101,558.06942 12.48,459.43438 12.48,338.99791 c 0,-216.16705 0.0079,-218.97965 0.618963,-219.30666 0.983602,-0.5264 453.166827,-0.45792 453.881577,0.0688 0.50967,0.37556 0.53786,13.78118 0.46116,219.43999 l -0.0817,219.03999 -227.22644,0.0802 c -124.97455,0.0441 -227.322546,-0.016 -227.440003,-0.13334 z M 12.838225,116.68605 C 12.573871,116.36753 12.499617,102.3031 12.559042,63.806055 L 12.64,11.36 H 240 467.36 l 0.081,52.446055 c 0.0594,38.497045 -0.0147,52.561475 -0.2792,52.879995 -0.53904,0.64951 -453.78449,0.64951 -454.323535,0 z M 186.56,102.55624 c 12.7129,-1.76473 23.26042,-6.442717 30.26362,-13.422381 6.288,-6.266876 9.52762,-13.56831 9.9576,-22.442425 0.70069,-14.460863 -6.77305,-26.188488 -21.2885,-33.405422 -5.23657,-2.603569 -10.63824,-4.252445 -17.53326,-5.35208 -5.01495,-0.799795 -17.49137,-0.796203 -22.35946,0.0064 -12.45645,2.053794 -22.99507,6.576355 -29.76649,12.774038 -7.11913,6.51593 -11.20529,16.579856 -10.61386,26.141235 0.82837,13.392054 7.85458,23.270735 21.31032,29.961819 6.89839,3.430336 14.91972,5.522536 24.35003,6.351206 2.83808,0.2494 12.06874,-0.11114 15.68,-0.61243 z M 171.68,93.741427 C 166.47119,93.0392 160.46655,90.681885 156.88103,87.93161 149.83504,82.526986 146.1441,74.685233 146.1441,65.119998 c 0,-13.232659 7.2002,-23.267942 19.47004,-27.136377 3.79852,-1.197597 6.15497,-1.542381 10.49308,-1.535302 18.24694,0.02979 30.64171,12.522399 29.87585,30.111679 -0.20888,4.797027 -0.991,8.085615 -2.79707,11.760738 -3.7428,7.616157 -11.08143,13.115411 -19.93751,14.940323 -3.14786,0.648656 -8.63128,0.876349 -11.56849,0.480368 z m -84.78311,7.755743 c 10.449926,-2.028204 17.79089,-5.248287 22.38066,-9.817173 3.6534,-3.636787 5.05346,-7.153917 5.0316,-12.64 -0.0252,-6.332374 -3.07444,-12.142143 -8.2273,-15.675852 C 102.45122,60.874343 96.262675,58.585457 90.105098,57.455006 84.80441,56.481867 75.800662,55.207995 69.6,54.553892 66.96,54.275403 62.784,53.833109 60.32,53.571019 54.459315,52.947633 48.829181,51.951201 47.567738,51.314101 45.331139,50.184491 44.16,48.50828 44.16,46.436722 c 0,-3.436592 2.539203,-5.904275 7.93583,-7.712314 9.421527,-3.156499 23.469229,-2.89167 34.356765,0.647699 8.049559,2.616788 12.530151,6.250087 14.696495,11.917354 l 0.70697,1.849465 3.80121,-0.08946 3.80121,-0.08946 -0.005,-10.959999 c -0.003,-6.028 -0.007,-11.10818 -0.009,-11.289288 -0.003,-0.213485 -1.4955,-0.297887 -4.24439,-0.24 l -4.23998,0.08929 -0.10228,1.439422 c -0.20534,2.889861 -1.483778,3.193819 -5.533426,1.315621 C 85.432358,28.727227 71.257027,26.388644 60,27.487392 46.172963,28.836988 34.865894,33.52301 30.031879,39.90717 c -5.150477,6.802102 -4.178576,16.777398 2.238262,22.972828 5.626633,5.432492 13.953245,7.669161 38.135485,10.243839 21.890236,2.33065 25.121014,3.348125 26.221324,8.257933 0.799156,3.565987 -0.943795,6.692966 -4.79614,8.604624 -4.64121,2.303113 -10.72936,3.453603 -18.27576,3.453603 -7.4857,0 -16.375879,-1.608947 -22.933866,-4.150576 -6.642906,-2.574538 -11.87983,-7.803805 -12.706915,-12.688326 -0.435795,-2.573677 -0.05419,-2.389248 -4.738727,-2.290214 L 28.96,74.400001 28.8764,87.448356 28.7928,100.4967 l 4.883596,-0.0884 4.883597,-0.0884 0.09821,-1.914918 c 0.119779,-2.335593 0.723939,-3.168649 2.135309,-2.944313 0.531568,0.08449 2.694486,0.827708 4.806486,1.651593 5.145411,2.007203 12.947661,3.974378 20.16,5.082928 0.528,0.0812 4.776,0.0978 9.44,0.0369 6.752694,-0.0881 9.135254,-0.23784 11.69689,-0.73502 z M 271.52,95.27327 v -3.766726 l -5.51877,-0.08988 c -4.97363,-0.081 -5.60582,-0.154416 -6.4,-0.743245 -1.62226,-1.202797 -1.64377,-1.47632 -1.66317,-21.153426 -0.017,-17.278141 0.0139,-18.32 0.54493,-18.32 0.30964,0 2.29809,1.548 4.41879,3.44 2.12069,1.892 9.7413,8.696 16.93467,15.12 30.5142,27.250491 32.5907,29.061429 33.54097,29.251483 0.51842,0.103684 3.4491,0.188516 6.51262,0.188516 4.86318,0 5.59556,-0.06648 5.77108,-0.523853 0.11056,-0.288119 0.0269,-13.010995 -0.18624,-28.273058 -0.35299,-25.294256 -0.34182,-27.862751 0.12627,-29.032691 0.76624,-1.91502 1.46675,-2.128105 7.44877,-2.26584 l 5.20992,-0.119958 -0.0899,-3.732297 -0.0899,-3.732301 h -19.52 -19.52 l -0.0899,3.732867 -0.0899,3.73287 5.42734,0.10713 c 4.90774,0.09688 5.51376,0.171161 6.32992,0.77591 1.82344,1.351111 1.81225,1.256807 2.11787,17.846508 0.19842,10.770768 0.18091,15.416518 -0.059,15.656438 -0.24154,0.241536 -0.50688,0.19921 -0.90872,-0.144957 -0.61827,-0.529542 -16.54023,-14.851932 -34.9057,-31.398978 L 265.24372,31.359999 H 248.78186 232.32 v 3.805123 3.80512 l 4.72,0.116653 c 5.28333,0.130569 6.30837,0.463987 7.67891,2.497728 l 0.72109,1.070022 v 22.842953 c 0,24.607592 0.008,24.490328 -1.65291,25.436642 -0.52262,0.297837 -2.23735,0.438909 -5.70709,0.469533 l -4.96,0.04378 -0.0914,3.455657 c -0.0503,1.900615 -0.0184,3.646048 0.0709,3.878746 0.1326,0.345536 3.66871,0.407961 19.29143,0.340566 L 271.52,99.039997 Z m 151.13098,-0.260249 -0.091,-3.653024 -5.70858,-0.16 -5.70857,-0.16 -0.77143,-0.897843 -0.7714,-0.897847 v -8.301231 -8.301235 l 1.05808,-1.200922 c 0.58192,-0.660505 6.53821,-7.464921 13.23616,-15.120921 6.69798,-7.656 12.8248,-14.515548 13.61514,-15.243446 1.84089,-1.695417 3.38636,-2.036553 9.22636,-2.036553 H 451.2 v -3.842557 -3.842559 l -18.8,0.08256 -18.8,0.08256 -0.0901,3.76 -0.0902,3.76 h 2.70934 c 1.49012,0 3.08045,0.141107 3.53408,0.313574 1.13632,0.432026 1.64455,1.616499 1.11818,2.605949 -0.58448,1.098662 -16.30099,19.500457 -16.82739,19.702444 -0.24311,0.0933 -0.66051,-0.01168 -0.92755,-0.233315 -0.26704,-0.221623 -4.08122,-4.702771 -8.47594,-9.958112 -6.45664,-7.72103 -7.9904,-9.73551 -7.9904,-10.494707 0,-1.497638 0.95779,-1.935833 4.2312,-1.935833 H 393.6 v -3.84 -3.84 h -23.04 -23.04 v 3.81128 3.81128 l 4.88,0.113344 c 5.52758,0.128387 6.73971,0.484646 9.21373,2.708041 0.75648,0.679831 6.70835,7.284054 13.22643,14.676054 6.51805,7.392 12.4695,14.139574 13.22544,14.994607 l 1.3744,1.554612 v 8.107545 c 0,8.106259 -1.3e-4,8.107689 -0.77139,9.005392 l -0.77143,0.897843 -5.54857,0.16 -5.54861,0.16 -0.0901,3.757865 -0.0901,3.757866 22.81015,0.08213 c 12.54556,0.04518 22.92307,-0.0019 23.06112,-0.104841 0.13804,-0.102839 0.21004,-1.830839 0.16,-3.84 z"
       id="path26"
       inkscape:connector-curvature="0" />
    <path
       style="fill:#c7ef18;fill-opacity:1;stroke-width:0.31999999"
       d="m 12.948271,557.6802 c -0.0835,-0.22012 -0.115018,-98.75222 -0.07004,-218.96021 L 12.96,120.16 H 240 467.04 v 218.87999 218.87999 l -226.96996,0.0802 c -181.408603,0.0641 -227.000429,-1.2e-4 -227.121769,-0.32 z M 12.947887,116.08022 C 12.864164,115.8601 12.832644,92.279997 12.877835,63.679998 L 12.96,11.68 H 240 467.04 V 63.999998 116.32 l -226.96996,0.0802 c -181.408434,0.0641 -227.000508,-1.2e-4 -227.122162,-0.32 z M 184.0461,103.3458 c 13.94145,-1.40594 26.59858,-6.871061 33.94212,-14.655598 9.74385,-10.328998 12.14165,-25.518764 6.04433,-38.290204 C 219.1,40.068287 208.30055,32.174815 194.46163,28.78621 188.55617,27.340194 183.73539,26.799857 176.64,26.788673 c -7.17459,-0.01131 -11.57013,0.511989 -18.03284,2.146849 -19.18958,4.854355 -30.50864,15.092051 -33.35081,30.164639 -0.72909,3.866464 -0.48525,11.029382 0.49905,14.659836 1.83048,6.751575 5.42323,12.544291 10.46944,16.880288 7.69469,6.611721 19.3134,11.314505 31.29516,12.667025 3.64065,0.41096 12.62514,0.43189 16.5261,0.0385 z M 169.28,92.81119 c -11.15823,-2.394812 -18.41632,-8.8959 -21.64885,-19.390917 -0.81663,-2.651338 -0.88039,-3.257658 -0.87294,-8.300275 0.007,-4.998637 0.0789,-5.672064 0.88099,-8.300275 1.51323,-4.958272 3.43541,-8.246454 6.74582,-11.539725 3.25668,-3.239823 6.2753,-5.132911 10.50384,-6.58735 12.53812,-4.312576 26.64497,-0.986461 34.39434,8.109504 2.25456,2.646339 4.42127,6.940627 5.4142,10.730656 1.11579,4.258943 1.1742,10.665375 0.13628,14.947189 -2.59611,10.709898 -11.19571,18.483414 -22.65915,20.482467 -3.71309,0.64751 -9.48841,0.579757 -12.89453,-0.151274 z m -88.48,9.9056 c 4.749082,-0.43535 9.710176,-1.39897 14.183898,-2.755011 10.357092,-3.139376 16.676512,-8.050985 18.986272,-14.756588 1.04795,-3.042368 1.0662,-8.519766 0.0392,-11.765194 -1.30513,-4.124355 -4.15065,-8.020338 -7.58225,-10.381343 C 99.646288,58.393323 89.828912,56.147624 65.12,53.609761 55.867024,52.659384 49.85776,51.745989 48.019734,51.010558 45.405002,49.96435 44.01521,47.337938 44.806922,44.939029 c 1.734486,-5.255552 10.813347,-8.082339 24.858316,-7.739872 6.958327,0.169667 10.854378,0.772944 16.414762,2.541712 7.890262,2.509907 12.624493,6.287584 14.56124,11.619129 0.31967,0.88 0.80169,1.78 1.07115,2 0.71659,0.58505 7.5223,0.55296 8.01257,-0.03778 0.2596,-0.312803 0.3393,-3.670048 0.27918,-11.759999 L 109.92,30.239999 h -4.64 -4.64 l -0.17512,1.52369 c -0.22945,1.996428 -0.9448,2.748095 -2.146029,2.254975 C 97.835482,33.820236 95.856,33.002556 93.92,32.201599 89.436982,30.346898 83.854323,28.745283 78.56,27.794951 c -3.642566,-0.65384 -5.17497,-0.746802 -12.32,-0.747385 -7.010653,-5.76e-4 -8.70087,0.09791 -12,0.699181 -15.727766,2.866409 -25.429998,9.230461 -27.507269,18.043034 -0.956384,4.05734 -0.444523,8.35046 1.481052,12.421993 0.72454,1.532003 1.706208,2.810534 3.591636,4.677766 6.043051,5.984736 13.197467,7.96991 38.594581,10.709056 16.585626,1.788803 20.535626,2.50439 23.21953,4.20647 3.895881,2.470694 3.533488,8.463113 -0.673143,11.13088 C 91.116186,90.096624 86.358438,91.670598 82.52785,92.38264 77.929782,93.237341 68.572237,93.153325 63.52,92.211978 54.86713,90.59975 49.694576,88.861834 45.796883,86.257223 41.503491,83.388186 39.098621,80.1332 38.269613,76.069076 L 37.863878,74.079997 H 33.251939 28.64 l -0.08351,13.36 L 28.472978,100.8 H 33.75649 39.04 v -1.733831 c 0,-3.243315 0.694813,-3.774572 3.43247,-2.62448 6.665181,2.800055 16.642221,5.419061 23.76753,6.239071 3.432266,0.395 10.454477,0.41238 14.56,0.036 z m 191.04,-7.516793 v -4.16 l -5.86845,-0.16 -5.86846,-0.16 -0.73942,-0.860499 c -0.6291,-0.732116 -0.77076,-1.352781 -0.94949,-4.16 -0.33814,-5.311219 -0.0692,-33.627941 0.32064,-33.757823 0.3331,-0.110982 2.56165,1.852563 36.14518,31.846917 l 17.6,15.719037 6.76576,0.0062 c 5.47814,0.005 6.79818,-0.07829 6.9361,-0.437671 0.0937,-0.244118 0.0423,-8.560118 -0.11415,-18.479999 -0.15645,-9.919881 -0.28969,-22.744118 -0.29609,-28.498303 l -0.0115,-10.462153 0.77139,-0.897847 0.77142,-0.897843 5.54858,-0.16 5.54861,-0.16 0.0893,-4.24 0.0893,-4.24 h -19.97507 c -15.69522,0 -20.00377,0.0857 -20.1091,0.4 -0.32061,0.956755 -0.27937,6.955462 0.0521,7.574787 0.33787,0.631312 0.62045,0.665453 5.54475,0.66993 5.80891,0.0053 6.48599,0.182285 7.33615,1.917808 0.47858,0.976966 0.58266,2.96832 0.8278,15.837474 0.15422,8.096 0.18379,14.911382 0.0657,15.145299 -0.14775,0.292691 -2.35141,-1.504493 -7.0678,-5.764102 C 301.484,63.417019 291.01432,53.973633 281.98726,45.83589 L 265.57433,31.039999 H 248.8214 c -14.98128,0 -16.77347,0.05353 -16.94716,0.506172 -0.38592,1.005687 -0.21321,7.399719 0.20935,7.75041 0.22842,0.189578 2.51038,0.380189 5.2578,0.439184 5.42582,0.116509 6.1059,0.354445 7.22262,2.526979 0.52549,1.022333 0.55827,2.648598 0.48,23.817254 -0.0889,24.039375 -0.0659,23.670629 -1.51713,24.388492 -0.26778,0.132467 -2.79088,0.315248 -5.60688,0.406179 l -5.12,0.165328 -0.0907,3.821369 c -0.0499,2.101754 -0.018,4.010874 0.0709,4.242483 0.13163,0.343018 3.76839,0.405815 19.61069,0.338631 L 271.84,99.359997 Z m 151.18874,3.701036 c 0.35123,-0.656262 0.45193,-6.098431 0.13475,-7.281193 -0.18295,-0.682195 -0.33453,-0.702723 -5.90755,-0.8 -7.81751,-0.136461 -7.14887,0.753747 -7.27117,-9.680486 l -0.0952,-8.123984 2.1742,-2.507686 c 8.59386,-9.912073 22.90397,-26.193548 24.38452,-27.743743 2.72524,-2.853501 3.38841,-3.06857 9.48774,-3.076915 3.55958,-0.0049 5.25386,-0.12489 5.52,-0.391027 0.40307,-0.403056 0.55936,-6.786659 0.18976,-7.749828 -0.17411,-0.45377 -2.17933,-0.506172 -19.36928,-0.506172 h -19.17507 l 0.0893,4.24 0.0893,4.24 3.18208,0.09234 c 3.38096,0.09811 4.01792,0.341004 4.01792,1.532195 0,0.991136 -16.17373,20.050565 -16.89664,19.911343 -0.42909,-0.08263 -14.88576,-17.000611 -16.29475,-19.068982 -0.39603,-0.581401 -0.42519,-0.895945 -0.14087,-1.52 0.34384,-0.754611 0.48192,-0.786892 3.36621,-0.786892 2.17923,0 3.10951,-0.122682 3.37731,-0.445386 0.24589,-0.296259 0.33936,-1.715904 0.2792,-4.24 L 394.08,31.199999 h -23.52 -23.52 l -0.0905,3.794614 c -0.0602,2.524096 0.0333,3.943741 0.2792,4.24 0.28547,0.343984 1.47174,0.446986 5.21043,0.452413 5.39987,0.0078 6.3887,0.266557 8.67936,2.270877 1.9127,1.67359 26.96995,29.989589 27.62797,31.221058 0.49798,0.9319 0.51484,14.320089 0.0198,15.740041 -0.55735,1.598796 -1.22554,1.78582 -7.00634,1.960995 l -5.28,0.16 -0.0907,3.821369 c -0.0499,2.101754 -0.0182,4.009754 0.0699,4.24 0.13028,0.339475 4.5168,0.418631 23.19943,0.418631 22.45027,0 23.04726,-0.01581 23.37005,-0.618964 z"
       id="path24"
       inkscape:connector-curvature="0" />
    <path
       style="fill:#b8c92b;stroke-width:0.31999999"
       d="m 12.948271,557.6802 c -0.0835,-0.22012 -0.115018,-98.75222 -0.07004,-218.96021 L 12.96,120.16 H 240 467.04 v 218.87999 218.87999 l -226.96996,0.0802 c -181.408603,0.0641 -227.000429,-1.2e-4 -227.121769,-0.32 z m 79.287527,-28.16022 0.0842,-10.96 21.120002,-0.18835 c 21.86736,-0.19501 23.99356,-0.30845 32.64,-1.74134 17.54181,-2.90711 28.27605,-9.10509 30.93606,-17.8626 0.83666,-2.75449 0.69279,-6.79337 -0.33796,-9.48771 -3.76562,-9.84313 -17.98057,-16.68275 -40.5181,-19.49552 -10.95476,-1.3672 -14.3904,-1.4528 -58.560002,-1.45875 l -42.24,-0.006 -0.08137,36.08 -0.08137,36.08 H 63.67443 92.151601 l 0.0842,-10.96 z m 0.06716,-28.80902 c -0.08633,-0.22496 -0.117808,-3.26941 -0.06996,-6.76544 0.07581,-5.5385 0.155997,-6.39987 0.623204,-6.69431 0.769609,-0.48502 17.961198,0.25063 20.903798,0.8945 1.232,0.2696 3.12887,0.92662 4.21527,1.4601 1.64701,0.80873 2.09132,1.20966 2.67364,2.41257 1.74506,3.60483 -1.10843,6.64525 -7.46989,7.95927 -5.08839,1.051 -20.545788,1.59401 -20.876062,0.73331 z M 254.72,504.31832 v -36.16166 l -29.44281,0.0817 -29.44281,0.0817 10e-4,35.92 c 6.4e-4,19.756 0.002,35.992 0.003,36.08 6.4e-4,0.088 13.2494,0.16 29.4414,0.16 h 29.44 V 504.3184 Z m 91.52288,28.77152 c 9.78845,-7.93434 10.96595,-8.95549 12.99347,-11.26829 1.55546,-1.7743 2.64551,-1.97882 3.54871,-0.66573 1.36281,1.98119 3.44832,3.99047 8.22908,7.92826 2.80176,2.30774 7.04976,5.81507 9.44,7.79405 l 4.34586,3.59814 33.28,-0.003 33.28,-0.003 -4.16,-2.73862 c -2.288,-1.50624 -8.264,-5.44615 -13.28,-8.75536 -5.016,-3.30919 -14.016,-9.2466 -20,-13.19421 -5.984,-3.94762 -12.93942,-8.52176 -15.45648,-10.16474 -3.65482,-2.38563 -4.55702,-3.11696 -4.48,-3.63136 0.0956,-0.63785 1.22506,-1.40137 37.80422,-25.55491 6.48324,-4.28093 11.85575,-7.89357 11.93888,-8.02809 0.18119,-0.29319 -62.19062,-0.33322 -64.32057,-0.0413 -1.38643,0.19004 -1.94823,0.62761 -8.60467,6.70224 -3.91674,3.5744 -7.61191,7.22691 -8.21146,8.1167 -1.53136,2.27264 -2.63789,2.18595 -4.13072,-0.32362 -0.94608,-1.59046 -3.7881,-4.28678 -10.22032,-9.69638 -4.73219,-3.97987 -5.71526,-4.67085 -6.88,-4.83562 -0.74739,-0.10576 -15.61488,-0.15049 -33.03888,-0.0994 l -31.68,0.0928 7.76816,5.12 c 4.27248,2.816 13.77648,9.08416 21.12,13.92925 7.34351,4.84508 15.1951,10.0142 17.44794,11.48691 3.06864,2.00598 4.072,2.82432 4,3.2623 -0.0605,0.36813 -5.54727,4.23581 -14.8161,10.444 -17.33469,11.61069 -41.2232,27.65101 -41.41333,27.80768 -0.0733,0.0604 14.83196,0.10986 33.12287,0.10986 h 33.25622 l 9.11712,-7.39015 z m -187.25022,-94.60973 81.00735,0.0799 v -17.03999 l -1e-5,-17.04 h -81.38667 c -44.76266,0 -81.446664,0.0599 -81.519996,0.13318 -0.07333,0.0733 -0.09485,7.86483 -0.04781,17.31462 0.0711,14.28375 0.157555,17.1216 0.51265,16.82691 0.310534,-0.25772 22.539746,-0.33267 81.434486,-0.27459 z M 411.2,438.27678 c 25.6175,-0.13555 26.67962,-0.19596 29.65635,-1.68755 2.55296,-1.27923 3.58231,-2.54925 4.5448,-5.60752 l 0.83773,-2.66173 0.16054,-70.23999 c 0.0883,-38.632 0.13968,-70.28489 0.11415,-70.33975 -0.1328,-0.28544 -8.57965,-3.85429 -15.47357,-6.53772 -21.35907,-8.31392 -42.5833,-14.63328 -87.2,-25.96321 -36.82495,-9.3513 -51.24709,-13.58603 -64.96,-19.07401 -5.509,-2.20473 -13.04981,-5.79626 -16.8,-8.00149 -5.8256,-3.42564 -11.87852,-8.55509 -15.10892,-12.80382 -5.75789,-7.57299 -7.42231,-17.40622 -4.42857,-26.16358 1.26486,-3.7 2.65568,-5.89962 5.61749,-8.88421 6.27964,-6.32792 15.86719,-10.01547 30.7981,-11.84551 5.76053,-0.70605 19.36294,-0.97219 25.07488,-0.4906 13.77786,1.16164 27.77902,4.94538 38.83604,10.4952 8.4056,4.21901 15.04548,12.10932 18.26756,21.70775 1.31238,3.90951 2.3704,9.54301 2.59571,13.82095 l 0.20646,3.92 h 41.61463 c 32.36694,0 41.52928,-0.0853 41.23062,-0.384 -0.29334,-0.29334 -0.384,-7.65576 -0.384,-31.18692 0,-19.55517 -0.12176,-31.71328 -0.33344,-33.296 -0.55488,-4.14865 -1.21862,-6.02052 -2.68538,-7.57332 -1.68697,-1.78592 -3.23529,-2.55358 -6.45312,-3.19949 -2.37385,-0.47649 -17.05171,-0.52026 -174.45332,-0.52026 -128.05549,0 -171.892308,-0.0927 -171.982638,-0.3637 -0.52934,-1.58802 -6.419878,14.02915 -8.87383,23.52656 -3.247542,12.56879 -4.773635,24.40028 -5.04039,39.07713 -0.375703,20.67115 1.934627,37.3864 7.427216,53.73603 9.669392,28.78256 27.832992,51.60653 56.236082,70.66499 19.57143,13.13242 46.81343,25.16583 79.11882,34.94861 16.30202,4.93658 25.65966,7.40864 66.67361,17.61347 21.53607,5.35846 33.69367,8.71616 44.04639,12.16483 28.95536,9.64547 43.0841,19.98739 46.94435,34.36218 0.48877,1.82009 0.66295,3.51401 0.69408,6.74988 l 0.0416,4.32 4.64,-0.0777 c 2.552,-0.0427 15.512,-0.1352 28.8,-0.20551 z M 12.947878,116.08022 C 12.864164,115.8601 12.832644,92.279997 12.877835,63.679998 L 12.96,11.68 H 240 467.04 V 63.999998 116.32 l -226.96996,0.0802 c -181.408434,0.0641 -227.000508,-1.2e-4 -227.122162,-0.32 z M 184.0461,103.3458 c 13.94145,-1.40594 26.59858,-6.871061 33.94212,-14.655598 9.74385,-10.328998 12.14165,-25.518764 6.04433,-38.290204 C 219.1,40.068287 208.30055,32.174815 194.46163,28.78621 188.55617,27.340194 183.73539,26.799857 176.64,26.788673 c -7.17459,-0.01131 -11.57013,0.511989 -18.03284,2.146849 -19.18958,4.854355 -30.50864,15.092051 -33.35081,30.164639 -0.72909,3.866464 -0.48525,11.029382 0.49905,14.659836 1.83048,6.751575 5.42323,12.544291 10.46944,16.880288 7.69469,6.611721 19.3134,11.314505 31.29516,12.667025 3.64065,0.41096 12.62514,0.43189 16.5261,0.0385 z M 169.28,92.81119 c -11.15823,-2.394812 -18.41632,-8.8959 -21.64885,-19.390917 -0.81663,-2.651338 -0.88039,-3.257658 -0.87294,-8.300275 0.007,-4.998637 0.0789,-5.672064 0.88099,-8.300275 1.51323,-4.958272 3.43541,-8.246454 6.74582,-11.539725 3.25668,-3.239823 6.2753,-5.132911 10.50384,-6.58735 12.53812,-4.312576 26.64497,-0.986461 34.39434,8.109504 2.25456,2.646339 4.42127,6.940627 5.4142,10.730656 1.11579,4.258943 1.1742,10.665375 0.13628,14.947189 -2.59611,10.709898 -11.19571,18.483414 -22.65915,20.482467 -3.71309,0.64751 -9.48841,0.579757 -12.89453,-0.151274 z m -88.48,9.9056 c 4.749082,-0.43535 9.710176,-1.39897 14.183898,-2.755011 10.357092,-3.139376 16.676512,-8.050985 18.986272,-14.756588 1.04795,-3.042368 1.0662,-8.519766 0.0392,-11.765194 -1.30513,-4.124355 -4.15065,-8.020338 -7.58225,-10.381343 C 99.646288,58.393323 89.828912,56.147624 65.12,53.609761 55.867024,52.659384 49.85776,51.745989 48.019734,51.010558 45.405002,49.96435 44.01521,47.337938 44.806922,44.939029 c 1.734486,-5.255552 10.813347,-8.082339 24.858316,-7.739872 6.958327,0.169667 10.854378,0.772944 16.414762,2.541712 7.890262,2.509907 12.624493,6.287584 14.56124,11.619129 0.31967,0.88 0.80169,1.78 1.07115,2 0.71659,0.58505 7.5223,0.55296 8.01257,-0.03778 0.2596,-0.312803 0.3393,-3.670048 0.27918,-11.759999 L 109.92,30.239999 h -4.64 -4.64 l -0.17512,1.52369 c -0.22945,1.996428 -0.9448,2.748095 -2.146029,2.254975 C 97.835482,33.820236 95.856,33.002556 93.92,32.201599 89.436982,30.346898 83.854323,28.745283 78.56,27.794951 c -3.642566,-0.65384 -5.17497,-0.746802 -12.32,-0.747385 -7.010653,-5.76e-4 -8.70087,0.09791 -12,0.699181 -15.727766,2.866409 -25.429998,9.230461 -27.507269,18.043034 -0.956384,4.05734 -0.444523,8.35046 1.481052,12.421993 0.72454,1.532003 1.706208,2.810534 3.591636,4.677766 6.043051,5.984736 13.197467,7.96991 38.594581,10.709056 16.585626,1.788803 20.535626,2.50439 23.21953,4.20647 3.895881,2.470694 3.533488,8.463113 -0.673143,11.13088 C 91.116186,90.096624 86.358438,91.670598 82.52785,92.38264 77.929782,93.237341 68.572237,93.153325 63.52,92.211978 54.86713,90.59975 49.694576,88.861834 45.796883,86.257223 41.503491,83.388186 39.098621,80.1332 38.269613,76.069076 L 37.863878,74.079997 H 33.251939 28.64 l -0.08351,13.36 L 28.472978,100.8 H 33.75649 39.04 v -1.733831 c 0,-3.243315 0.694813,-3.774572 3.43247,-2.62448 6.665181,2.800055 16.642221,5.419061 23.76753,6.239071 3.432266,0.395 10.454477,0.41238 14.56,0.036 z m 191.04,-7.516793 v -4.16 l -5.86845,-0.16 -5.86846,-0.16 -0.73942,-0.860499 c -0.6291,-0.732116 -0.77076,-1.352781 -0.94949,-4.16 -0.33814,-5.311219 -0.0692,-33.627941 0.32064,-33.757823 0.3331,-0.110982 2.56165,1.852563 36.14518,31.846917 l 17.6,15.719037 6.76576,0.0062 c 5.47814,0.005 6.79818,-0.07829 6.9361,-0.437671 0.0937,-0.244118 0.0423,-8.560118 -0.11415,-18.479999 -0.15645,-9.919881 -0.28969,-22.744118 -0.29609,-28.498303 l -0.0115,-10.462153 0.77139,-0.897847 0.77142,-0.897843 5.54858,-0.16 5.54861,-0.16 0.0893,-4.24 0.0893,-4.24 h -19.97507 c -15.69522,0 -20.00377,0.0857 -20.1091,0.4 -0.32061,0.956755 -0.27937,6.955462 0.0521,7.574787 0.33787,0.631312 0.62045,0.665453 5.54475,0.66993 5.80891,0.0053 6.48599,0.182285 7.33615,1.917808 0.47858,0.976966 0.58266,2.96832 0.8278,15.837474 0.15422,8.096 0.18379,14.911382 0.0657,15.145299 -0.14775,0.292691 -2.35141,-1.504493 -7.0678,-5.764102 C 301.484,63.417019 291.01432,53.973633 281.98726,45.83589 L 265.57433,31.039999 H 248.8214 c -14.98128,0 -16.77347,0.05353 -16.94716,0.506172 -0.38592,1.005687 -0.21321,7.399719 0.20935,7.75041 0.22842,0.189578 2.51038,0.380189 5.2578,0.439184 5.42582,0.116509 6.1059,0.354445 7.22262,2.526979 0.52549,1.022333 0.55827,2.648598 0.48,23.817254 -0.0889,24.039375 -0.0659,23.670629 -1.51713,24.388492 -0.26778,0.132467 -2.79088,0.315248 -5.60688,0.406179 l -5.12,0.165328 -0.0907,3.821369 c -0.0499,2.101754 -0.018,4.010874 0.0709,4.242483 0.13163,0.343018 3.76839,0.405815 19.61069,0.338631 L 271.84,99.359997 Z m 151.18874,3.701036 c 0.35123,-0.656262 0.45193,-6.098431 0.13475,-7.281193 -0.18295,-0.682195 -0.33453,-0.702723 -5.90755,-0.8 -7.81751,-0.136461 -7.14887,0.753747 -7.27117,-9.680486 l -0.0952,-8.123984 2.1742,-2.507686 c 8.59386,-9.912073 22.90397,-26.193548 24.38452,-27.743743 2.72524,-2.853501 3.38841,-3.06857 9.48774,-3.076915 3.55958,-0.0049 5.25386,-0.12489 5.52,-0.391027 0.40307,-0.403056 0.55936,-6.786659 0.18976,-7.749828 -0.17411,-0.45377 -2.17933,-0.506172 -19.36928,-0.506172 h -19.17507 l 0.0893,4.24 0.0893,4.24 3.18208,0.09234 c 3.38096,0.09811 4.01792,0.341004 4.01792,1.532195 0,0.991136 -16.17373,20.050565 -16.89664,19.911343 -0.42909,-0.08263 -14.88576,-17.000611 -16.29475,-19.068982 -0.39603,-0.581401 -0.42519,-0.895945 -0.14087,-1.52 0.34384,-0.754611 0.48192,-0.786892 3.36621,-0.786892 2.17923,0 3.10951,-0.122682 3.37731,-0.445386 0.24589,-0.296259 0.33936,-1.715904 0.2792,-4.24 L 394.08,31.199999 h -23.52 -23.52 l -0.0905,3.794614 c -0.0602,2.524096 0.0333,3.943741 0.2792,4.24 0.28547,0.343984 1.47174,0.446986 5.21043,0.452413 5.39987,0.0078 6.3887,0.266557 8.67936,2.270877 1.9127,1.67359 26.96995,29.989589 27.62797,31.221058 0.49798,0.9319 0.51484,14.320089 0.0198,15.740041 -0.55735,1.598796 -1.22554,1.78582 -7.00634,1.960995 l -5.28,0.16 -0.0907,3.821369 c -0.0499,2.101754 -0.0182,4.009754 0.0699,4.24 0.13028,0.339475 4.5168,0.418631 23.19943,0.418631 22.45027,0 23.04726,-0.01581 23.37005,-0.618964 z"
       id="path22"
       inkscape:connector-curvature="0" />
    <path
       style="fill:#98a72b;stroke-width:0.31999999"
       d="m 12.948271,557.6802 c -0.0835,-0.22012 -0.115018,-98.75222 -0.07004,-218.96021 L 12.96,120.16 H 240 467.04 v 218.87999 218.87999 l -226.96996,0.0802 c -181.408603,0.0641 -227.000429,-1.2e-4 -227.121769,-0.32 z M 92.08,540.48795 c 0.312,-0.006 0.4,-2.40157 0.4,-10.88797 v -10.88 l 15.6,-0.008 c 21.71825,-0.0115 29.32936,-0.39318 38.48,-1.92873 10.45954,-1.7552 18.48252,-4.74624 24.11114,-8.98887 6.24035,-4.70371 8.60209,-11.63046 6.27333,-18.39913 -0.81351,-2.36448 -1.83702,-3.91696 -4.2265,-6.41082 -6.52676,-6.81197 -20.05079,-11.59971 -38.63797,-13.67862 -9.22569,-1.03187 -14.85218,-1.14551 -56.714538,-1.14551 H 35.2 v 36.10666 c 0,19.85869 0.06005,36.16669 0.13344,36.24 0.09395,0.0939 51.958224,0.0768 56.74656,-0.0186 z m 0.558387,-40.05677 c -0.09498,-0.24755 -0.133481,-3.25382 -0.08554,-6.68064 l 0.08715,-6.23056 8.320003,0.0298 c 11.69278,0.0416 16.41003,0.95853 18.85513,3.66496 2.44247,2.70355 0.91972,5.97619 -3.57014,7.6729 -3.22996,1.22061 -6.55097,1.61597 -15.19945,1.80947 -6.903101,0.1545 -8.262378,0.11152 -8.407156,-0.26576 z m 162.322983,3.89875 0.0814,-36.16995 H 225.28137 195.52 v 36.10666 c 0,19.85869 0.06,36.16669 0.13333,36.24 0.0733,0.0733 13.42934,0.10182 29.68,0.0633 l 29.54667,-0.07 z m 82.75997,35.88877 c 5.03504,-3.80473 19.23876,-15.67715 20.73031,-17.32781 2.46829,-2.73155 3.34281,-2.93356 4.54937,-1.05091 0.42298,0.66 1.2528,1.68794 1.84404,2.28429 0.80297,0.80998 16.9903,14.26675 19.35516,16.09027 0.35908,0.2769 66.69572,0.42483 66.99978,0.14941 0.088,-0.0797 -1.136,-1.00019 -2.72,-2.04554 -1.584,-1.04534 -14.4,-9.4927 -28.48,-18.77193 -15.97133,-10.5257 -25.63613,-17.0857 -25.69603,-17.44131 -0.0735,-0.43648 4.42326,-3.55488 19.2,-13.31466 10.61283,-7.0096 21.95942,-14.51901 25.21472,-16.68761 l 5.91869,-3.94292 H 411.3489 378.06042 l -7.19021,6.5441 c -3.95463,3.59923 -7.69421,7.26448 -8.31021,8.14499 -0.76893,1.09911 -1.34669,1.60563 -1.84314,1.61594 -0.76627,0.016 -0.86016,-0.0753 -3.01753,-2.93047 -0.81095,-1.07321 -4.19965,-4.20502 -8.22346,-7.6 l -6.84409,-5.77456 H 309.31588 276 l 11.76295,7.75882 c 6.46962,4.26733 17.88162,11.79072 25.36,16.71862 8.03974,5.29779 13.59289,9.15607 13.58687,9.44 -0.009,0.43271 -7.74797,5.69927 -45.56899,31.01146 -5.89337,3.94419 -10.66274,7.25619 -10.5986,7.36 0.18498,0.29936 66.78027,0.0688 67.17911,-0.23258 z M 240.15729,439.91874 c 0.1022,-0.5713 0.14463,-8.81476 0.0943,-18.31875 l -0.0916,-17.28 h -81.6 -81.6 l -0.09155,17.44 c -0.05035,9.59199 -0.01459,17.87199 0.07949,18.39999 l 0.171034,0.96 81.426246,-0.0812 81.42624,-0.0812 z m 195.36271,0.5703 c 5.26688,-0.56579 7.3823,-1.16624 9.33843,-2.65062 1.63031,-1.23712 2.88778,-3.54544 3.46839,-6.36682 0.7432,-3.61136 0.96697,-24.55123 0.88169,-82.50144 l -0.0885,-60.14982 -1.28,-0.72603 c -1.89053,-1.07232 -11.58282,-5.14976 -18.78307,-7.90182 -19.48487,-7.44743 -41.31075,-13.96397 -78.44467,-23.42115 -51.09718,-13.01331 -66.22261,-17.67793 -81.33226,-25.08255 -9.06554,-4.44265 -14.32283,-8.07115 -19.39867,-13.38866 -6.24323,-6.54048 -8.94152,-13.4639 -8.50406,-21.82014 0.21865,-4.17659 0.79382,-6.40252 2.60461,-10.08 4.66514,-9.47428 15.78402,-15.22086 34.09812,-17.62297 5.3702,-0.70436 21.62833,-0.98994 27.12637,-0.47649 13.58084,1.2683 28.82989,5.56002 38.47363,10.8281 11.66323,6.37125 18.52554,18.29258 19.8279,34.4453 0.18333,2.27367 0.37642,4.17704 0.42909,4.22972 0.2129,0.21291 82.11171,0.5189 83.74301,0.31287 l 1.76,-0.22228 -0.20544,-32.22712 c -0.23453,-36.79095 -0.30442,-37.85071 -2.73968,-41.53472 -1.30051,-1.96737 -2.24218,-2.69558 -4.64675,-3.59338 C 437.66621,138.97763 445.12522,139.04 262.5702,139.04 H 91.06039 l -0.726233,1.28 c -2.204762,3.88593 -6.16025,14.60707 -8.441411,22.87999 -3.924432,14.23246 -5.588295,27.76499 -5.547626,45.12 0.02515,10.73773 0.387277,16.32476 1.596995,24.64 5.987459,41.156 27.320565,73.24166 64.645145,97.22832 23.75506,15.26621 54.00105,27.50189 96.61274,39.08361 9.31658,2.53223 19.04208,5.00599 44,11.19178 19.90644,4.93382 30.14839,7.66477 39.84,10.6231 29.93734,9.13834 45.53219,18.53827 51.68435,31.15319 2.39853,4.91811 2.70439,6.38963 2.71047,13.04003 l 0.005,5.68003 26.88,-0.004 c 21.26547,-0.003 27.78233,-0.10039 31.2,-0.46755 z M 12.947878,116.08022 C 12.864164,115.8601 12.832644,92.279997 12.877835,63.679998 L 12.96,11.68 H 240 467.04 V 63.999998 116.32 l -226.96996,0.0802 c -181.408434,0.0641 -227.000508,-1.2e-4 -227.122162,-0.32 z M 184.0461,103.3458 c 13.94145,-1.40594 26.59858,-6.871061 33.94212,-14.655598 9.74385,-10.328998 12.14165,-25.518764 6.04433,-38.290204 C 219.1,40.068287 208.30055,32.174815 194.46163,28.78621 188.55617,27.340194 183.73539,26.799857 176.64,26.788673 c -7.17459,-0.01131 -11.57013,0.511989 -18.03284,2.146849 -19.18958,4.854355 -30.50864,15.092051 -33.35081,30.164639 -0.72909,3.866464 -0.48525,11.029382 0.49905,14.659836 1.83048,6.751575 5.42323,12.544291 10.46944,16.880288 7.69469,6.611721 19.3134,11.314505 31.29516,12.667025 3.64065,0.41096 12.62514,0.43189 16.5261,0.0385 z M 169.28,92.81119 c -11.15823,-2.394812 -18.41632,-8.8959 -21.64885,-19.390917 -0.81663,-2.651338 -0.88039,-3.257658 -0.87294,-8.300275 0.007,-4.998637 0.0789,-5.672064 0.88099,-8.300275 1.51323,-4.958272 3.43541,-8.246454 6.74582,-11.539725 3.25668,-3.239823 6.2753,-5.132911 10.50384,-6.58735 12.53812,-4.312576 26.64497,-0.986461 34.39434,8.109504 2.25456,2.646339 4.42127,6.940627 5.4142,10.730656 1.11579,4.258943 1.1742,10.665375 0.13628,14.947189 -2.59611,10.709898 -11.19571,18.483414 -22.65915,20.482467 -3.71309,0.64751 -9.48841,0.579757 -12.89453,-0.151274 z m -88.48,9.9056 c 4.749082,-0.43535 9.710176,-1.39897 14.183898,-2.755011 10.357092,-3.139376 16.676512,-8.050985 18.986272,-14.756588 1.04795,-3.042368 1.0662,-8.519766 0.0392,-11.765194 -1.30513,-4.124355 -4.15065,-8.020338 -7.58225,-10.381343 C 99.646288,58.393323 89.828912,56.147624 65.12,53.609761 55.867024,52.659384 49.85776,51.745989 48.019734,51.010558 45.405002,49.96435 44.01521,47.337938 44.806922,44.939029 c 1.734486,-5.255552 10.813347,-8.082339 24.858316,-7.739872 6.958327,0.169667 10.854378,0.772944 16.414762,2.541712 7.890262,2.509907 12.624493,6.287584 14.56124,11.619129 0.31967,0.88 0.80169,1.78 1.07115,2 0.71659,0.58505 7.5223,0.55296 8.01257,-0.03778 0.2596,-0.312803 0.3393,-3.670048 0.27918,-11.759999 L 109.92,30.239999 h -4.64 -4.64 l -0.17512,1.52369 c -0.22945,1.996428 -0.9448,2.748095 -2.146029,2.254975 C 97.835482,33.820236 95.856,33.002556 93.92,32.201599 89.436982,30.346898 83.854323,28.745283 78.56,27.794951 c -3.642566,-0.65384 -5.17497,-0.746802 -12.32,-0.747385 -7.010653,-5.76e-4 -8.70087,0.09791 -12,0.699181 -15.727766,2.866409 -25.429998,9.230461 -27.507269,18.043034 -0.956384,4.05734 -0.444523,8.35046 1.481052,12.421993 0.72454,1.532003 1.706208,2.810534 3.591636,4.677766 6.043051,5.984736 13.197467,7.96991 38.594581,10.709056 16.585626,1.788803 20.535626,2.50439 23.21953,4.20647 3.895881,2.470694 3.533488,8.463113 -0.673143,11.13088 C 91.116186,90.096624 86.358438,91.670598 82.52785,92.38264 77.929782,93.237341 68.572237,93.153325 63.52,92.211978 54.86713,90.59975 49.694576,88.861834 45.796883,86.257223 41.503491,83.388186 39.098621,80.1332 38.269613,76.069076 L 37.863878,74.079997 H 33.251939 28.64 l -0.08351,13.36 L 28.472978,100.8 H 33.75649 39.04 v -1.733831 c 0,-3.243315 0.694813,-3.774572 3.43247,-2.62448 6.665181,2.800055 16.642221,5.419061 23.76753,6.239071 3.432266,0.395 10.454477,0.41238 14.56,0.036 z m 191.04,-7.516793 v -4.16 l -5.86845,-0.16 -5.86846,-0.16 -0.73942,-0.860499 c -0.6291,-0.732116 -0.77076,-1.352781 -0.94949,-4.16 -0.33814,-5.311219 -0.0692,-33.627941 0.32064,-33.757823 0.3331,-0.110982 2.56165,1.852563 36.14518,31.846917 l 17.6,15.719037 6.76576,0.0062 c 5.47814,0.005 6.79818,-0.07829 6.9361,-0.437671 0.0937,-0.244118 0.0423,-8.560118 -0.11415,-18.479999 -0.15645,-9.919881 -0.28969,-22.744118 -0.29609,-28.498303 l -0.0115,-10.462153 0.77139,-0.897847 0.77142,-0.897843 5.54858,-0.16 5.54861,-0.16 0.0893,-4.24 0.0893,-4.24 h -19.97507 c -15.69522,0 -20.00377,0.0857 -20.1091,0.4 -0.32061,0.956755 -0.27937,6.955462 0.0521,7.574787 0.33787,0.631312 0.62045,0.665453 5.54475,0.66993 5.80891,0.0053 6.48599,0.182285 7.33615,1.917808 0.47858,0.976966 0.58266,2.96832 0.8278,15.837474 0.15422,8.096 0.18379,14.911382 0.0657,15.145299 -0.14775,0.292691 -2.35141,-1.504493 -7.0678,-5.764102 C 301.484,63.417019 291.01432,53.973633 281.98726,45.83589 L 265.57433,31.039999 H 248.8214 c -14.98128,0 -16.77347,0.05353 -16.94716,0.506172 -0.38592,1.005687 -0.21321,7.399719 0.20935,7.75041 0.22842,0.189578 2.51038,0.380189 5.2578,0.439184 5.42582,0.116509 6.1059,0.354445 7.22262,2.526979 0.52549,1.022333 0.55827,2.648598 0.48,23.817254 -0.0889,24.039375 -0.0659,23.670629 -1.51713,24.388492 -0.26778,0.132467 -2.79088,0.315248 -5.60688,0.406179 l -5.12,0.165328 -0.0907,3.821369 c -0.0499,2.101754 -0.018,4.010874 0.0709,4.242483 0.13163,0.343018 3.76839,0.405815 19.61069,0.338631 L 271.84,99.359997 Z m 151.18874,3.701036 c 0.35123,-0.656262 0.45193,-6.098431 0.13475,-7.281193 -0.18295,-0.682195 -0.33453,-0.702723 -5.90755,-0.8 -7.81751,-0.136461 -7.14887,0.753747 -7.27117,-9.680486 l -0.0952,-8.123984 2.1742,-2.507686 c 8.59386,-9.912073 22.90397,-26.193548 24.38452,-27.743743 2.72524,-2.853501 3.38841,-3.06857 9.48774,-3.076915 3.55958,-0.0049 5.25386,-0.12489 5.52,-0.391027 0.40307,-0.403056 0.55936,-6.786659 0.18976,-7.749828 -0.17411,-0.45377 -2.17933,-0.506172 -19.36928,-0.506172 h -19.17507 l 0.0893,4.24 0.0893,4.24 3.18208,0.09234 c 3.38096,0.09811 4.01792,0.341004 4.01792,1.532195 0,0.991136 -16.17373,20.050565 -16.89664,19.911343 -0.42909,-0.08263 -14.88576,-17.000611 -16.29475,-19.068982 -0.39603,-0.581401 -0.42519,-0.895945 -0.14087,-1.52 0.34384,-0.754611 0.48192,-0.786892 3.36621,-0.786892 2.17923,0 3.10951,-0.122682 3.37731,-0.445386 0.24589,-0.296259 0.33936,-1.715904 0.2792,-4.24 L 394.08,31.199999 h -23.52 -23.52 l -0.0905,3.794614 c -0.0602,2.524096 0.0333,3.943741 0.2792,4.24 0.28547,0.343984 1.47174,0.446986 5.21043,0.452413 5.39987,0.0078 6.3887,0.266557 8.67936,2.270877 1.9127,1.67359 26.96995,29.989589 27.62797,31.221058 0.49798,0.9319 0.51484,14.320089 0.0198,15.740041 -0.55735,1.598796 -1.22554,1.78582 -7.00634,1.960995 l -5.28,0.16 -0.0907,3.821369 c -0.0499,2.101754 -0.0182,4.009754 0.0699,4.24 0.13028,0.339475 4.5168,0.418631 23.19943,0.418631 22.45027,0 23.04726,-0.01581 23.37005,-0.618964 z"
       id="path20"
       inkscape:connector-curvature="0" />
    <path
       style="fill:#798627;stroke-width:0.31999999"
       d="m 12.948271,557.6802 c -0.0835,-0.22012 -0.115018,-98.75222 -0.07004,-218.96021 L 12.96,120.16 H 240 467.04 v 218.87999 218.87999 l -226.96996,0.0802 c -181.408603,0.0641 -227.000429,-1.2e-4 -227.121769,-0.32 z M 92.48,530.14398 c 0,-7.86134 0.100707,-10.7567 0.384,-11.04 0.28993,-0.28992 4.977786,-0.384 19.13604,-0.384 10.31361,0 20.68881,-0.15069 23.056,-0.33485 20.71573,-1.61174 34.72206,-6.9304 40.41023,-15.34515 3.32503,-4.91885 3.30665,-11.96563 -0.0447,-17.14307 -6.1048,-9.4312 -22.20792,-15.24745 -48.38157,-17.47481 -3.79646,-0.32311 -15.16915,-0.42212 -48.48,-0.42212 H 35.04 l -0.08136,36.4 -0.08136,36.4 H 63.67864 92.48 Z m 0.533811,-29.74509 c -0.490291,-0.35849 -0.539241,-1.04633 -0.461161,-6.48 l 0.08735,-6.07891 8.64,0.008 c 11.50259,0.01 15.36699,0.70099 17.99637,3.2176 1.22111,1.16874 1.36363,1.46019 1.36363,2.78887 0,2.83737 -2.70909,4.79734 -8.04716,5.82185 -4.6835,0.89891 -18.633966,1.41408 -19.579029,0.72304 z m 162.151949,39.89492 c 0.29295,-0.76343 0.22358,-71.59219 -0.0706,-72.05549 -0.20219,-0.3185 -6.41456,-0.38477 -29.9951,-0.32 l -29.74008,0.0817 -0.0824,36 c -0.0453,19.8 -0.0138,36.18 0.07,36.4 0.12037,0.31603 6.39409,0.4 29.88815,0.4 26.81997,0 29.75485,-0.0496 29.93004,-0.50617 z M 346.72,533.2819 c 5.104,-4.12464 10.30253,-8.58445 11.55232,-9.91065 2.72298,-2.88951 3.5215,-3.09399 4.72979,-1.21127 1.1176,1.74147 2.25872,2.76554 12.35789,11.09066 l 9.12,7.51795 33.90858,0.0157 c 28.85731,0.0134 33.83875,-0.0501 33.44,-0.42627 -0.25773,-0.24311 -6.87658,-4.65405 -14.70858,-9.80215 -35.94125,-23.62467 -42.88,-28.2399 -42.88,-28.52124 0,-0.16567 3.78,-2.79124 8.4,-5.8346 4.62,-3.04336 15.024,-9.91811 23.12,-15.27724 8.096,-5.35914 15.692,-10.3817 16.88,-11.16122 1.188,-0.77952 2.16,-1.53075 2.16,-1.66944 0,-0.13865 -14.96496,-0.25213 -33.25546,-0.25213 h -33.25542 l -1.05549,0.88 C 371.04282,473.88155 361.6,483.05896 361.6,483.91419 c 0,0.1352 -0.396,0.24208 -0.88,0.23754 -0.68672,-0.006 -1.10544,-0.34029 -1.90643,-1.52 -1.41261,-2.08055 -3.44723,-4.01114 -10.33357,-9.80515 l -5.92,-4.981 -33.38667,-0.003 c -20.22173,-0.003 -33.3446,0.11344 -33.28,0.292 0.0587,0.16215 3.02565,2.21415 6.59329,4.56 36.38317,23.9232 43.90826,28.96058 43.89732,29.38519 -0.007,0.27363 -12.12442,8.59712 -28.18431,19.36 -15.49455,10.384 -28.24065,18.988 -28.32466,19.12 -0.084,0.132 15.08376,0.23577 33.70614,0.23062 l 33.85889,-0.009 9.28,-7.49933 z M 240.23421,442.63874 c 0.13519,-0.4833 0.24579,-9.30276 0.24579,-19.59875 v -18.72 H 158.56 76.64 v 18.88 c 0,10.38399 0.101706,19.23999 0.226013,19.67999 l 0.226016,0.8 81.448201,-0.0812 81.4482,-0.0812 z M 434.72,443.21349 c 7.46966,-0.36906 9.62653,-0.84883 12.68614,-2.82176 1.35085,-0.87107 2.8993,-3.57994 3.425,-5.99175 0.92784,-4.25664 1.00624,-10.14147 1.0183,-76.44105 l 0.0125,-67.87894 -1.53091,-0.92975 c -1.93837,-1.17722 -7.47187,-3.67866 -13.85088,-6.26133 -22.20874,-8.99167 -45.84567,-16.20496 -88.64,-27.0503 -27.10202,-6.86845 -37.97966,-9.79851 -49.28,-13.27431 -24.49914,-7.53555 -39.10648,-14.73647 -47.89434,-23.6103 -2.97726,-3.00638 -4.84481,-5.61409 -6.48629,-9.05693 -2.08032,-4.3633 -2.42109,-6.08113 -2.40767,-12.13708 0.0108,-4.86486 0.0793,-5.48128 0.87181,-7.84 4.43639,-13.20431 18.44132,-20.10207 43.91649,-21.62994 20.12222,-1.20683 39.98675,2.47803 55.62275,10.31797 3.86771,1.9393 5.81875,3.3193 8.96566,6.34158 7.18077,6.8964 11.11255,16.15791 12.16292,28.65039 l 0.3767,4.48 h 44.04934 c 24.22714,0 44.09732,-0.072 44.15597,-0.16 0.0587,-0.088 0.0304,-15.496 -0.0629,-34.24 -0.16826,-33.81207 -0.17523,-34.105 -0.88528,-37.26089 -0.39363,-1.7495 -1.07315,-3.7909 -1.51008,-4.53645 -1.85415,-3.16386 -5.25069,-4.62781 -12.09392,-5.21262 C 434.44128,136.42221 383.45914,136.32 262.75964,136.32 H 92.274138 l -1.320829,2.32 c -5.342317,9.38364 -10.889613,27.74916 -13.18568,43.65402 -1.632307,11.30702 -2.208688,28.34864 -1.318576,38.98597 3.089379,36.9198 15.966073,65.32969 40.249227,88.802 21.55566,20.83589 50.53064,36.65915 92.26172,50.38417 17.44071,5.73613 32.28317,9.80653 67.83892,18.60419 22.89651,5.66535 29.77832,7.45024 40.00108,10.37479 40.6351,11.62496 58.44762,23.99334 60.45283,41.97632 0.32112,2.87984 0.14346,6.85737 -0.48061,10.76022 l -0.21401,1.3383 26.20089,-0.0109 c 14.4105,-0.006 28.7929,-0.139 31.9609,-0.29555 z M 12.947878,116.08022 C 12.864164,115.8601 12.832644,92.279997 12.877835,63.679998 L 12.96,11.68 H 240 467.04 V 63.999998 116.32 l -226.96996,0.0802 c -181.408434,0.0641 -227.000508,-1.2e-4 -227.122162,-0.32 z M 184.0461,103.3458 c 13.94145,-1.40594 26.59858,-6.871061 33.94212,-14.655598 9.74385,-10.328998 12.14165,-25.518764 6.04433,-38.290204 C 219.1,40.068287 208.30055,32.174815 194.46163,28.78621 188.55617,27.340194 183.73539,26.799857 176.64,26.788673 c -7.17459,-0.01131 -11.57013,0.511989 -18.03284,2.146849 -19.18958,4.854355 -30.50864,15.092051 -33.35081,30.164639 -0.72909,3.866464 -0.48525,11.029382 0.49905,14.659836 1.83048,6.751575 5.42323,12.544291 10.46944,16.880288 7.69469,6.611721 19.3134,11.314505 31.29516,12.667025 3.64065,0.41096 12.62514,0.43189 16.5261,0.0385 z M 169.28,92.81119 c -11.15823,-2.394812 -18.41632,-8.8959 -21.64885,-19.390917 -0.81663,-2.651338 -0.88039,-3.257658 -0.87294,-8.300275 0.007,-4.998637 0.0789,-5.672064 0.88099,-8.300275 1.51323,-4.958272 3.43541,-8.246454 6.74582,-11.539725 3.25668,-3.239823 6.2753,-5.132911 10.50384,-6.58735 12.53812,-4.312576 26.64497,-0.986461 34.39434,8.109504 2.25456,2.646339 4.42127,6.940627 5.4142,10.730656 1.11579,4.258943 1.1742,10.665375 0.13628,14.947189 -2.59611,10.709898 -11.19571,18.483414 -22.65915,20.482467 -3.71309,0.64751 -9.48841,0.579757 -12.89453,-0.151274 z m -88.48,9.9056 c 4.749082,-0.43535 9.710176,-1.39897 14.183898,-2.755011 10.357092,-3.139376 16.676512,-8.050985 18.986272,-14.756588 1.04795,-3.042368 1.0662,-8.519766 0.0392,-11.765194 -1.30513,-4.124355 -4.15065,-8.020338 -7.58225,-10.381343 C 99.646288,58.393323 89.828912,56.147624 65.12,53.609761 55.867024,52.659384 49.85776,51.745989 48.019734,51.010558 45.405002,49.96435 44.01521,47.337938 44.806922,44.939029 c 1.734486,-5.255552 10.813347,-8.082339 24.858316,-7.739872 6.958327,0.169667 10.854378,0.772944 16.414762,2.541712 7.890262,2.509907 12.624493,6.287584 14.56124,11.619129 0.31967,0.88 0.80169,1.78 1.07115,2 0.71659,0.58505 7.5223,0.55296 8.01257,-0.03778 0.2596,-0.312803 0.3393,-3.670048 0.27918,-11.759999 L 109.92,30.239999 h -4.64 -4.64 l -0.17512,1.52369 c -0.22945,1.996428 -0.9448,2.748095 -2.146029,2.254975 C 97.835482,33.820236 95.856,33.002556 93.92,32.201599 89.436982,30.346898 83.854323,28.745283 78.56,27.794951 c -3.642566,-0.65384 -5.17497,-0.746802 -12.32,-0.747385 -7.010653,-5.76e-4 -8.70087,0.09791 -12,0.699181 -15.727766,2.866409 -25.429998,9.230461 -27.507269,18.043034 -0.956384,4.05734 -0.444523,8.35046 1.481052,12.421993 0.72454,1.532003 1.706208,2.810534 3.591636,4.677766 6.043051,5.984736 13.197467,7.96991 38.594581,10.709056 16.585626,1.788803 20.535626,2.50439 23.21953,4.20647 3.895881,2.470694 3.533488,8.463113 -0.673143,11.13088 C 91.116186,90.096624 86.358438,91.670598 82.52785,92.38264 77.929782,93.237341 68.572237,93.153325 63.52,92.211978 54.86713,90.59975 49.694576,88.861834 45.796883,86.257223 41.503491,83.388186 39.098621,80.1332 38.269613,76.069076 L 37.863878,74.079997 H 33.251939 28.64 l -0.08351,13.36 L 28.472978,100.8 H 33.75649 39.04 v -1.733831 c 0,-3.243315 0.694813,-3.774572 3.43247,-2.62448 6.665181,2.800055 16.642221,5.419061 23.76753,6.239071 3.432266,0.395 10.454477,0.41238 14.56,0.036 z m 191.04,-7.516793 v -4.16 l -5.86845,-0.16 -5.86846,-0.16 -0.73942,-0.860499 c -0.6291,-0.732116 -0.77076,-1.352781 -0.94949,-4.16 -0.33814,-5.311219 -0.0692,-33.627941 0.32064,-33.757823 0.3331,-0.110982 2.56165,1.852563 36.14518,31.846917 l 17.6,15.719037 6.76576,0.0062 c 5.47814,0.005 6.79818,-0.07829 6.9361,-0.437671 0.0937,-0.244118 0.0423,-8.560118 -0.11415,-18.479999 -0.15645,-9.919881 -0.28969,-22.744118 -0.29609,-28.498303 l -0.0115,-10.462153 0.77139,-0.897847 0.77142,-0.897843 5.54858,-0.16 5.54861,-0.16 0.0893,-4.24 0.0893,-4.24 h -19.97507 c -15.69522,0 -20.00377,0.0857 -20.1091,0.4 -0.32061,0.956755 -0.27937,6.955462 0.0521,7.574787 0.33787,0.631312 0.62045,0.665453 5.54475,0.66993 5.80891,0.0053 6.48599,0.182285 7.33615,1.917808 0.47858,0.976966 0.58266,2.96832 0.8278,15.837474 0.15422,8.096 0.18379,14.911382 0.0657,15.145299 -0.14775,0.292691 -2.35141,-1.504493 -7.0678,-5.764102 C 301.484,63.417019 291.01432,53.973633 281.98726,45.83589 L 265.57433,31.039999 H 248.8214 c -14.98128,0 -16.77347,0.05353 -16.94716,0.506172 -0.38592,1.005687 -0.21321,7.399719 0.20935,7.75041 0.22842,0.189578 2.51038,0.380189 5.2578,0.439184 5.42582,0.116509 6.1059,0.354445 7.22262,2.526979 0.52549,1.022333 0.55827,2.648598 0.48,23.817254 -0.0889,24.039375 -0.0659,23.670629 -1.51713,24.388492 -0.26778,0.132467 -2.79088,0.315248 -5.60688,0.406179 l -5.12,0.165328 -0.0907,3.821369 c -0.0499,2.101754 -0.018,4.010874 0.0709,4.242483 0.13163,0.343018 3.76839,0.405815 19.61069,0.338631 L 271.84,99.359997 Z m 151.18874,3.701036 c 0.35123,-0.656262 0.45193,-6.098431 0.13475,-7.281193 -0.18295,-0.682195 -0.33453,-0.702723 -5.90755,-0.8 -7.81751,-0.136461 -7.14887,0.753747 -7.27117,-9.680486 l -0.0952,-8.123984 2.1742,-2.507686 c 8.59386,-9.912073 22.90397,-26.193548 24.38452,-27.743743 2.72524,-2.853501 3.38841,-3.06857 9.48774,-3.076915 3.55958,-0.0049 5.25386,-0.12489 5.52,-0.391027 0.40307,-0.403056 0.55936,-6.786659 0.18976,-7.749828 -0.17411,-0.45377 -2.17933,-0.506172 -19.36928,-0.506172 h -19.17507 l 0.0893,4.24 0.0893,4.24 3.18208,0.09234 c 3.38096,0.09811 4.01792,0.341004 4.01792,1.532195 0,0.991136 -16.17373,20.050565 -16.89664,19.911343 -0.42909,-0.08263 -14.88576,-17.000611 -16.29475,-19.068982 -0.39603,-0.581401 -0.42519,-0.895945 -0.14087,-1.52 0.34384,-0.754611 0.48192,-0.786892 3.36621,-0.786892 2.17923,0 3.10951,-0.122682 3.37731,-0.445386 0.24589,-0.296259 0.33936,-1.715904 0.2792,-4.24 L 394.08,31.199999 h -23.52 -23.52 l -0.0905,3.794614 c -0.0602,2.524096 0.0333,3.943741 0.2792,4.24 0.28547,0.343984 1.47174,0.446986 5.21043,0.452413 5.39987,0.0078 6.3887,0.266557 8.67936,2.270877 1.9127,1.67359 26.96995,29.989589 27.62797,31.221058 0.49798,0.9319 0.51484,14.320089 0.0198,15.740041 -0.55735,1.598796 -1.22554,1.78582 -7.00634,1.960995 l -5.28,0.16 -0.0907,3.821369 c -0.0499,2.101754 -0.0182,4.009754 0.0699,4.24 0.13028,0.339475 4.5168,0.418631 23.19943,0.418631 22.45027,0 23.04726,-0.01581 23.37005,-0.618964 z"
       id="path18"
       inkscape:connector-curvature="0" />
    <path
       style="fill:#596420;stroke-width:0.31999999"
       d="M 13.158949,557.64692 C 12.893662,557.32724 12.820546,499.98289 12.879767,338.68693 L 12.96,120.16 H 240 467.04 l 0.0802,218.52693 c 0.0592,161.29596 -0.0138,218.64031 -0.27916,218.95999 -0.53776,0.64794 -453.144357,0.64794 -453.682111,0 z M 92.416,540.73598 c 0.283293,-0.28329 0.384,-3.17865 0.384,-11.04 v -10.656 l 16.4,-0.003 c 22.70273,-0.004 30.82286,-0.49091 40.4,-2.42256 10.4543,-2.10854 18.11008,-5.46848 23.02297,-10.10425 4.7624,-4.49376 6.49732,-9.77559 5.1243,-15.60048 -2.99003,-12.68487 -21.87461,-20.82189 -52.78727,-22.74506 -3.90127,-0.24269 -19.39067,-0.3271 -48,-0.26153 l -42.24,0.0968 -0.08138,36.12553 c -0.05954,26.42973 0.01539,36.24218 0.279184,36.56 0.499769,0.60221 56.896976,0.65168 57.498195,0.0505 z m 0.526467,-40.6663 c -0.08659,-0.22567 -0.118073,-3.06967 -0.06995,-6.32 l 0.08749,-5.9097 7.840003,0.0539 c 9.2494,0.0635 13.48489,0.5776 16.54054,2.00749 2.42153,1.13318 3.40774,2.44566 3.18873,4.24368 -0.53713,4.4095 -7.13726,6.33497 -21.714892,6.33497 -4.352855,0 -5.751981,-0.0978 -5.871914,-0.4103 z m 162.338893,4.3303 0.0813,-36.56 H 225.28136 195.2 v 36.42666 c 0,20.03469 0.0967,36.52342 0.21497,36.64166 0.11824,0.11821 13.61824,0.17821 30,0.13331 L 255.2,540.95998 Z m 91.99179,28.59251 c 5.52595,-4.47011 10.80835,-9.00611 11.73869,-10.08 0.9303,-1.07388 1.95507,-1.95251 2.27722,-1.95251 0.33692,0 1.1743,0.7744 1.97145,1.8232 0.91997,1.21034 4.75843,4.59869 11.41917,10.08 l 10.03338,8.2568 h 33.7046 c 19.27069,0 33.77972,-0.1216 33.88007,-0.28393 0.18083,-0.29261 -2.72765,-2.24477 -37.25773,-25.0073 -11.176,-7.3673 -20.32,-13.57629 -20.32,-13.79773 0,-0.22144 11.33869,-7.89699 25.19709,-17.05683 13.8584,-9.15981 25.1984,-16.76221 25.2,-16.89421 0,-0.132 -15.15309,-0.23337 -33.67709,-0.22531 l -33.68,0.0147 -6.86141,6.30531 c -3.77379,3.46794 -7.50432,7.09732 -8.29008,8.06532 -0.78579,0.968 -1.68297,1.80454 -1.99376,1.859 -0.38691,0.0678 -0.97501,-0.50464 -1.86518,-1.81545 C 357.36995,480.25196 356.13216,479.0911 348,472.20192 l -5.12,-4.33741 -33.68,-0.0122 c -18.524,-0.007 -33.67772,0.0957 -33.67494,0.22774 0.003,0.132 7.78068,5.352 17.28422,11.6 30.8399,20.27536 33.62458,22.13843 33.52698,22.43072 -0.0872,0.26109 -14.50783,10.01187 -45.62328,30.84906 -6.20787,4.15724 -11.20337,7.69398 -11.10112,7.85942 0.11413,0.18467 13.20315,0.3008 33.89999,0.3008 h 33.71407 l 10.04723,-8.12749 z M 240.14821,445.09995 c 0.22211,-0.22198 0.33179,-7.07005 0.33179,-20.71577 V 403.99999 H 158.56 76.64 v 20 c 0,10.99999 0.101702,20.35999 0.226006,20.79999 l 0.226007,0.8 81.362207,-0.0842 c 55.60438,-0.0575 81.46724,-0.18918 81.69399,-0.41581 z M 443.68,444.83602 c 2.84573,-0.40032 5.80771,-1.47236 6.99283,-2.53098 1.54986,-1.38445 2.40362,-3.49126 3.1385,-7.74506 0.25565,-1.4799 0.39641,-22.44563 0.4879,-72.66828 l 0.12858,-70.58826 -1.24531,-0.82411 c -4.98032,-3.29582 -22.76912,-10.54386 -40.5425,-16.51903 -17.0399,-5.72858 -34.56896,-10.63414 -71.04,-19.88074 -16.26525,-4.12377 -30.00428,-7.79199 -37.76,-10.08164 -39.06219,-11.53198 -56.28195,-22.36048 -61.16908,-38.46566 -0.74356,-2.45034 -0.85582,-3.38882 -0.87233,-7.29227 -0.0257,-6.08018 0.97414,-9.79942 3.76463,-14.00347 5.35842,-8.07281 15.85932,-12.89896 32.99678,-15.16513 6.12714,-0.81022 24.93892,-0.82279 30.56,-0.0204 14.3471,2.04795 28.86486,6.72461 36.99002,11.91572 9.80736,6.26588 16.2758,18.83821 17.03676,33.11331 l 0.21322,4 9.12,0.23995 c 12.32256,0.32421 80.64842,0.15364 81.38339,-0.20316 0.56064,-0.27216 0.5776,-1.65284 0.43418,-35.36 -0.15728,-36.96001 -0.17987,-37.53765 -1.63667,-41.85321 -1.16519,-3.45175 -4.03642,-5.46167 -8.8209,-6.17482 -5.42275,-0.80829 -31.16381,-0.93944 -186.95889,-0.95255 l -163.118889,-0.0137 -0.943875,1.30298 c -2.593642,3.58042 -7.072704,14.10606 -9.896836,23.25722 -5.125238,16.60754 -7.404528,34.03923 -6.976768,53.35732 0.404496,18.26756 2.729623,32.17382 7.930724,47.43257 11.975158,35.13219 37.970024,62.43923 78.956034,82.9416 21.07556,10.54259 44.39807,18.93904 77.4885,27.89709 5.192,1.40553 21.248,5.49411 35.68,9.08569 47.03552,11.70541 59.70314,15.60567 74.88,23.05488 20.34349,9.98519 28.43011,21.87309 25.89539,38.06816 -0.27545,1.76 -0.5768,3.704 -0.66963,4.32 l -0.1688,1.12 32.43152,-0.17942 c 23.56602,-0.13042 33.21882,-0.29023 35.31152,-0.5846 z M 13.013557,116.26689 C 12.896101,116.14943 12.8,92.706131 12.8,64.170663 12.8,24.244147 12.88849,12.199508 13.184,11.904 c 0.604745,-0.604745 453.15578,-0.554915 453.65779,0.04995 0.26432,0.318513 0.33859,14.257874 0.27917,52.399998 l -0.081,51.966052 -226.90644,0.0802 C 115.33497,116.4443 13.130974,116.3843 13.013517,116.26687 Z M 185.80153,103.18785 c 18.34572,-2.40491 31.84617,-10.485744 37.99829,-22.744266 4.49185,-8.950307 4.80713,-19.505058 0.86547,-28.973352 -3.76259,-9.038137 -13.28651,-17.142748 -24.89182,-21.182294 -7.19762,-2.505326 -13.96599,-3.532957 -23.29347,-3.536609 -7.59876,-0.003 -11.39331,0.457279 -18.28449,2.217791 -17.8376,4.557029 -29.45716,14.568606 -32.59083,28.080702 -2.33836,10.082832 -0.16397,20.628041 5.90977,28.6607 6.67126,8.822889 19.8403,15.471828 34.56555,17.451848 4.66014,0.62662 15.03351,0.64003 19.72153,0.0255 z M 170.08715,92.9428 c -11.76043,-2.219066 -19.63454,-9.292877 -22.62358,-20.324188 -1.05366,-3.888624 -1.0545,-11.093149 -0.002,-15.018614 3.30805,-12.335004 13.26572,-19.937487 27.09819,-20.68894 12.08105,-0.656304 23.1286,5.297664 28.11177,15.15055 1.73523,3.430937 2.51544,6.907686 2.68674,11.972431 0.32137,9.502198 -2.08556,15.695261 -8.43635,21.706812 -2.29155,2.16914 -3.3449,2.89089 -6.31618,4.327818 -1.96129,0.948489 -4.78998,2.035542 -6.28598,2.415673 -3.61521,0.918618 -10.60151,1.143655 -14.23285,0.458458 z M 86.24,102.10779 c 16.18876,-2.851093 25.76084,-9.066926 28.17092,-18.29338 0.77703,-2.974669 0.52256,-7.996832 -0.56093,-11.070781 -1.01661,-2.884179 -3.3245,-6.384297 -5.41608,-8.213958 C 102.05629,58.950683 92.441936,56.452936 66.937824,53.749253 50.597184,52.016987 47.974365,51.494363 46.071386,49.591384 44.72145,48.241448 44.33519,46.846165 44.81655,45.058533 c 0.999917,-3.713408 6.035402,-6.235488 14.938778,-7.482259 5.512144,-0.771888 14.827856,-0.480855 20.084672,0.627469 11.310112,2.384566 17.395226,5.974364 20.1316,11.876255 0.65281,1.408 1.30159,2.776 1.44174,3.04 0.19759,0.372205 1.03766,0.500903 3.74074,0.573079 1.91725,0.05119 3.81171,0.012 4.2099,-0.0871 l 0.72399,-0.180176 -0.084,-11.592905 -0.084,-11.592902 -4.71177,-0.08851 c -5.287065,-0.09931 -4.90432,-0.282862 -5.12185,2.456236 -0.14375,1.810144 -0.811314,1.917536 -3.661017,0.58896 C 92.576314,31.402196 89.146685,30.230092 84.1172,28.990269 77.030336,27.243279 73.354304,26.791063 66.24,26.791063 c -6.905123,0 -10.792294,0.459361 -17.038013,2.013443 -8.037849,2.000006 -13.906403,4.937237 -17.880799,8.949403 C 27.705613,41.403842 26.24,44.913016 26.24,49.919998 c 0,6.445034 3.127738,12.070153 8.80241,15.8308 5.817312,3.855177 13.062774,5.430912 37.503977,8.156332 16.411248,1.830007 19.676909,2.553443 22.096743,4.895066 2.347878,2.271993 2.197689,6.178339 -0.339348,8.826374 C 90.742944,91.345197 78.632781,93.812445 68.8,92.824544 61.582275,92.099379 52.873638,89.967549 48.808285,87.930672 44.670694,85.8576 41.060243,82.696026 39.624829,79.888967 c -0.346221,-0.677066 -0.890899,-2.261066 -1.210391,-3.52 l -0.580892,-2.28897 -4.572247,-0.08912 c -3.44277,-0.06711 -4.636384,0.01194 -4.831874,0.32 -0.394579,0.621789 -0.335968,25.44686 0.06183,26.190153 0.303934,0.56791 0.710908,0.61897 4.933829,0.61897 2.531411,0 4.830346,-0.0874 5.108739,-0.19424 0.364848,-0.14 0.506173,-0.62559 0.506173,-1.739165 0,-2.173133 0.44465,-3.186595 1.398093,-3.186595 0.425661,0 2.251734,0.585792 4.057936,1.301763 5.613577,2.225193 12.92135,4.113077 20.463971,5.286647 4.22247,0.65698 16.379664,0.38241 21.28,-0.48062 z m 185.88576,-3.093966 c 0.25268,-0.65848 0.25268,-6.969174 0,-7.627654 -0.1662,-0.433136 -0.95265,-0.506173 -5.45028,-0.506173 -5.85088,0 -7.24646,-0.315959 -7.79752,-1.765354 -0.41742,-1.097913 -0.43625,-37.370229 -0.0193,-37.22131 0.3528,0.126012 -1.81282,-1.793149 28.96467,25.668383 l 24.62331,21.970409 6.89669,-0.08606 6.89669,-0.08606 -0.16,-18.08 c -0.088,-9.944 -0.16,-23.00806 -0.16,-29.031244 V 41.297509 l 0.72803,-0.728755 c 0.69005,-0.690739 1.00695,-0.734103 6.07434,-0.831258 3.11264,-0.05968 5.51577,-0.243168 5.75197,-0.439184 0.45916,-0.381081 0.58035,-7.167699 0.14035,-7.860758 -0.20167,-0.317688 -4.46327,-0.385081 -20.23509,-0.32 l -19.9796,0.08244 -0.0904,3.794614 c -0.0602,2.524096 0.0333,3.943741 0.27918,4.24 0.28691,0.345702 1.48887,0.445498 5.37045,0.445882 5.87554,6.4e-4 6.98373,0.331868 7.61882,2.277568 0.48065,1.472524 0.9912,30.681934 0.53629,30.681934 -0.28929,0 -9.84318,-8.544854 -34.99429,-31.298341 l -11.36,-10.277067 -16.96,0.06771 -16.96,0.0677 -0.0931,3.52 c -0.14157,5.353792 -0.63829,4.884713 5.30724,5.011868 5.48757,0.11736 6.17108,0.312711 7.34138,2.098224 0.52279,0.7976 0.57166,2.468762 0.66194,22.635542 0.0536,11.9759 0.005,22.409775 -0.10741,23.18639 -0.13629,0.939235 -0.50891,1.716041 -1.11286,2.319999 l -0.90798,0.907975 h -5.10729 c -5.02595,0 -5.11037,0.01146 -5.30025,0.72 -0.25025,0.933792 -0.25025,6.266208 0,7.2 l 0.19295,0.72 h 19.60844 c 17.58514,0 19.62849,-0.05223 19.80268,-0.506173 z m 151.08122,-0.213827 c 0.0986,-0.396 0.13731,-2.304 0.0861,-4.24 l -0.0931,-3.52 -5.6,-0.16 c -3.64608,-0.104173 -5.84634,-0.30088 -6.30598,-0.563767 -0.38832,-0.22207 -0.85552,-0.94207 -1.03824,-1.6 -0.46925,-1.689654 -0.44007,-14.961621 0.0348,-15.857269 0.33479,-0.631332 14.99636,-17.487715 24.2322,-27.859718 4.75974,-5.345267 4.66736,-5.303075 11.63107,-5.312217 6.30265,-0.0083 5.76294,0.4688 5.6192,-4.967027 l -0.0931,-3.52 -19.17955,-0.08254 c -15.13171,-0.06512 -19.23347,0.0024 -19.43511,0.32 -0.42134,0.663678 -0.31932,7.420567 0.11866,7.858542 0.2432,0.243187 1.46691,0.384 3.33715,0.384 3.10544,0 3.95885,0.339747 3.95885,1.576012 0,0.640637 -16.06352,19.653043 -16.72448,19.79472 -0.39859,0.08543 -15.70883,-17.868672 -16.5033,-19.353168 -0.47043,-0.878972 -0.17574,-1.658585 0.70308,-1.860076 0.37657,-0.08634 1.9087,-0.193101 3.4047,-0.237239 l 2.72,-0.08025 V 35.36 31.2 h -23.52 -23.52 v 4.16 4.16 l 5.28,0.16 c 4.75456,0.144076 5.4287,0.236012 6.77424,0.923859 1.9879,1.016221 2.68534,1.756368 17.19843,18.251942 L 388.8,73.071597 v 8.048419 8.048419 l -0.82486,0.775783 c -0.79572,0.74832 -1.01655,0.779356 -6.24,0.876851 L 376.32,90.922141 v 4.298928 4.298928 h 23.35389 23.35392 z"
       id="path16"
       inkscape:connector-curvature="0" />
    <path
       style="fill:#050608;stroke-width:0.31999999"
       d="m 13.268271,557.3602 c -0.0835,-0.22012 -0.115018,-98.60822 -0.07004,-218.64021 L 13.28,120.48 H 240 466.72 v 218.55999 218.55999 l -226.64996,0.0802 c -181.152603,0.0641 -226.680429,-1.2e-4 -226.801769,-0.32 z M 92.736,541.05598 c 0.283293,-0.28329 0.384,-3.17865 0.384,-11.04 v -10.656 l 16.56,-0.006 c 22.53242,-0.008 30.44826,-0.48982 40.03052,-2.43485 17.06722,-3.46428 27.1503,-10.48697 28.61154,-19.92742 1.47413,-9.52365 -5.42234,-17.79139 -19.10121,-22.89923 -6.61935,-2.47174 -16.32519,-4.52221 -27.54085,-5.81834 -4.28919,-0.49564 -9.70077,-0.56691 -50.851773,-0.66947 -37.483926,-0.0934 -46.100765,-0.0375 -46.315101,0.30035 -0.144828,0.22829 -0.265532,16.64083 -0.268227,36.47226 -0.0044,32.35677 0.04671,36.10873 0.497959,36.56 0.449628,0.44963 3.525264,0.50284 29.056,0.50284 21.781334,0 28.644214,-0.0911 28.937142,-0.38399 z m 0.456768,-46.84976 0.08723,-6.04624 3.84,-0.096 c 8.476072,-0.21193 17.521302,0.76611 20.359752,2.20147 3.13265,1.58413 3.68301,4.25812 1.312,6.37453 -2.61501,2.33424 -6.78802,3.13616 -17.75898,3.41271 l -7.927233,0.1998 z m 162.129422,46.79933 c 0.2638,-0.31786 0.33871,-10.21366 0.27918,-36.88 L 255.52,467.67998 h -30.24 -30.24 l -0.0814,36.62029 c -0.0646,29.0848 0.001,36.6727 0.32,36.87507 0.22075,0.14016 13.73973,0.25706 30.04218,0.25974 24.57976,0.004 29.70238,-0.0693 30.00137,-0.42953 z m 83.66495,-0.92557 c 6.46835,-4.98877 18.15705,-14.75648 19.86115,-16.59705 1.12176,-1.21162 2.26006,-2.20295 2.52953,-2.20295 0.26951,0 0.78148,0.468 1.1377,1.04 0.35626,0.572 1.412,1.77655 2.34611,2.67674 1.55895,1.5024 16.75418,14.10438 18.97898,15.74 l 0.96057,0.7062 33.91504,-0.0815 c 29.85284,-0.0717 33.92522,-0.13897 34.00004,-0.56147 0.0548,-0.30947 -1.81943,-1.72825 -5.27565,-3.99369 -2.94832,-1.93255 -11.26461,-7.40679 -18.48061,-12.165 -7.216,-4.75817 -17.83053,-11.74502 -23.58784,-15.52627 -5.75731,-3.78128 -10.43731,-6.97869 -10.4,-7.10537 0.0373,-0.12672 11.22784,-7.59744 24.86784,-16.60167 13.64,-9.00422 25.052,-16.59088 25.36,-16.85923 0.308,-0.26838 0.56,-0.60963 0.56,-0.75837 0,-0.1487 -15.3,-0.26937 -34,-0.26812 l -34,0.003 -7.10867,6.47776 c -3.90976,3.56275 -7.70199,7.23372 -8.4272,8.15772 -0.72522,0.924 -1.44192,1.68 -1.59264,1.68 -0.15075,0 -0.91699,-0.828 -1.70275,-1.84 -1.9064,-2.45526 -3.16228,-3.63273 -10.12874,-9.49619 l -5.92,-4.98265 h -34.02667 c -27.07384,0 -34.00152,0.0811 -33.90361,0.39942 0.1252,0.40694 4.48939,3.32989 33.98912,22.76445 9.14036,6.02172 16.67358,11.11283 16.74049,11.31356 0.0669,0.20074 -4.74755,3.61799 -10.69883,7.59389 -5.95128,3.97587 -18.5245,12.41795 -27.9405,18.76016 -9.416,6.34218 -17.32225,11.64768 -17.56944,11.78999 -0.25342,0.14588 -0.36247,0.48534 -0.25004,0.77833 0.18226,0.47498 3.1128,0.51962 34.10132,0.51962 h 33.90194 l 1.76336,-1.36 z m -98.44603,-91.52 c 0.14239,-0.22 0.30389,-10.32192 0.3589,-22.44873 0.0814,-17.9345 0.0216,-22.09846 -0.32,-22.3151 -0.54692,-0.34685 -163.489719,-0.349 -164.036496,-0.003 -0.336951,0.21372 -0.397447,4.44464 -0.316794,22.1551 0.05483,12.04 0.221654,22.14291 0.37072,22.45091 0.257075,0.53117 4.478419,0.56 81.97791,0.56 65.0141,0 81.75977,-0.0817 81.96576,-0.4 z m 216.97953,-77.89775 0.0806,-78.13774 -0.88064,-0.61025 c -2.84218,-1.9695 -9.9935,-5.35413 -19.44064,-9.20101 -23.1751,-9.43694 -46.03638,-16.39749 -92.48,-28.15731 -25.89478,-6.55673 -37.91401,-9.83693 -49.38122,-13.47679 -25.00451,-7.93678 -39.93344,-16.10345 -47.56308,-26.01873 -5.78901,-7.52326 -7.44471,-17.47356 -4.32838,-26.01249 5.1207,-14.03106 23.62586,-20.97986 54.07268,-20.30461 10.2501,0.22733 15.90275,0.97459 25.12,3.32075 8.69146,2.21233 17.63875,5.71856 22.79715,8.93365 10.01597,6.24268 16.64355,18.89195 17.27827,32.97696 0.0965,2.14208 0.29376,4.08608 0.43834,4.32 0.21664,0.35062 8.42986,0.42533 46.75453,0.42533 25.57043,0 46.74371,-0.10348 47.05171,-0.22996 0.5295,-0.21742 0.56,-2.61898 0.56,-44.07999 V 130.56 l -9.84,-0.003 c -5.412,-0.002 -86.808,-10e-4 -180.88,9.6e-4 -94.072,0.002 -171.222906,0.004 -171.446454,0.003 -1.050548,-0.003 -6.137882,9.54555 -9.121242,17.11902 -5.356835,13.59871 -8.487149,27.14567 -10.204109,44.16 -0.562793,5.57706 -0.562793,26.10294 0,31.68 2.107843,20.88783 6.634179,37.09923 14.742522,52.80141 18.983433,36.7623 55.124003,63.32166 112.829283,82.91714 19.37533,6.57946 32.80281,10.30964 74.13898,20.59607 26.70606,6.64573 37.88708,9.63475 47.95497,12.81987 18.71552,5.92086 31.0281,11.78221 39.40675,18.75942 10.89828,9.07536 14.31776,20.99619 9.83066,34.27085 -0.51226,1.51539 -0.93136,2.8728 -0.93136,3.01645 0,0.14365 18.756,0.22464 41.68,0.17997 l 41.68,-0.0812 0.0806,-78.13776 z M 13.199039,64.079998 13.28,12 H 240 466.72 l 0.081,52.079998 0.081,52.080002 H 240 13.118078 Z M 188.8,103.09097 c 7.21911,-1.35048 12.31164,-2.98996 17.59884,-5.665751 8.74955,-4.428038 13.90931,-9.392185 17.61294,-16.945222 3.10493,-6.332076 4.24245,-12.342851 3.54783,-18.747228 -0.92171,-8.498166 -3.97869,-14.905958 -9.91643,-20.785974 -7.83275,-7.756598 -18.23296,-12.382264 -31.72318,-14.109416 -4.64899,-0.59521 -15.11637,-0.513384 -19.52,0.152593 -12.26295,1.854569 -23.392,6.404769 -30.16829,12.334545 -5.55632,4.862214 -9.17828,10.781545 -10.98671,17.955481 -0.48261,1.914499 -0.60455,3.5652 -0.60279,8.16 0.003,6.647193 0.4771,8.976406 2.87656,14.119234 1.89207,4.055306 3.64939,6.551357 6.85156,9.731728 7.18604,7.137152 19.14314,12.56521 30.90967,14.03179 1.584,0.19744 3.24,0.42008 3.68,0.49478 0.44,0.0747 4.328,0.0832 8.64,0.0189 6.04783,-0.0902 8.60807,-0.26059 11.2,-0.74546 z M 170.0798,92.66079 c -9.47248,-1.824076 -16.43386,-6.800633 -20.17231,-14.420793 -2.29385,-4.6756 -2.8155,-7.106451 -2.8155,-13.119999 0,-4.277053 0.11546,-5.541472 0.70129,-7.68 0.93768,-3.42296 3.16973,-7.892073 5.09831,-10.208086 6.93355,-8.326445 19.74194,-12.010483 31.43208,-9.040717 10.39021,2.63953 17.40085,9.396522 19.99179,19.268483 1.13511,4.324963 1.21474,10.453168 0.19386,14.91942 -2.19829,9.61729 -9.98826,17.243875 -20.2234,19.799225 -3.44773,0.860775 -10.92315,1.114656 -14.20612,0.482467 z m -84.901515,9.93451 c 16.918545,-2.692843 27.309645,-9.365614 29.580235,-18.995297 0.67717,-2.871932 0.43616,-7.764258 -0.52417,-10.640006 C 111.32833,64.257713 103.55269,59.09226 89.433629,56.484564 83.643306,55.415131 75.065594,54.268008 65.39168,53.269358 c -9.357085,-0.965942 -13.651062,-1.5724 -16.235469,-2.293011 -5.763574,-1.607059 -5.632736,-7.454336 0.231165,-10.33087 4.67455,-2.293094 11.802304,-3.375235 20.514579,-3.114538 11.007255,0.329373 20.627533,3.091184 25.991168,7.461597 1.648957,1.343613 3.681367,4.34072 4.589517,6.767977 0.37684,1.007191 0.85441,1.938903 1.06126,2.070471 0.20686,0.131568 2.12247,0.241421 4.25692,0.244115 2.89711,0.0036 3.97288,-0.106035 4.24403,-0.432752 0.25978,-0.313011 0.33929,-3.753338 0.27919,-12.08 l -0.084,-11.642348 -4.79771,-0.089 C 99.973766,29.729556 99.84,29.786865 99.84,32.231202 c 0,0.962896 -0.153056,1.447616 -0.499021,1.580374 -0.274464,0.105322 -1.617005,-0.333142 -2.983427,-0.974364 C 86.564374,28.241556 72.163869,25.64727 61.44,26.54673 43.018726,28.091806 30.198433,34.563621 26.841274,44.01252 c -0.852075,2.398211 -1.140618,6.799542 -0.622581,9.496633 0.645616,3.361319 2.668025,7.133402 5.118528,9.546794 6.365707,6.269302 13.653467,8.228143 41.622779,11.18759 14.741277,1.559782 18.923574,2.450419 21.298454,4.53559 2.341024,2.055446 2.286512,6.159424 -0.11543,8.690176 -3.360355,3.540563 -15.164109,5.944851 -24.878448,5.067452 C 61.542323,91.83928 53.200739,89.809299 48.639846,87.517584 42.798512,84.58249 39.634666,80.875063 38.587805,75.738503 l -0.403229,-1.978506 -4.85703,-0.08836 -4.85703,-0.08836 -0.325659,0.856548 c -0.393009,1.033692 -0.278651,26.173315 0.120883,26.573805 0.321793,0.32256 8.540529,0.55645 9.991063,0.28433 1.030624,-0.19335 1.03201,-0.19627 1.15905,-2.444565 0.156832,-2.775539 0.461587,-3.025683 2.644077,-2.170266 8.401616,3.292979 16.587212,5.428231 24.82007,6.474421 2.442013,0.31033 15.297952,-0.0847 18.298285,-0.56225 z M 272.30874,99.221033 c 0.43054,-0.80446 0.43054,-7.237612 0,-8.042073 -0.30747,-0.574506 -0.7201,-0.618963 -5.74494,-0.618963 -5.77865,0 -6.7384,-0.195178 -7.32851,-1.490343 -0.45159,-0.991129 -0.50742,-36.697413 -0.0571,-36.536321 0.16399,0.05866 7.31687,6.370665 15.89528,14.026665 8.57841,7.655999 18.42359,16.439999 21.87817,19.519999 3.45458,3.08 8.33295,7.436 10.84082,9.68 l 4.55975,4.079999 h 7.00235 c 6.62061,0 7.01296,-0.03345 7.19705,-0.613529 0.10711,-0.33744 0.0455,-9.94944 -0.1368,-21.359999 -0.18236,-11.41056 -0.33228,-24.222518 -0.33318,-28.47102 -0.003,-10.048112 -0.61446,-9.204086 6.76944,-9.330291 4.70051,-0.08034 5.61011,-0.175318 5.94896,-0.621162 0.49597,-0.652579 0.55152,-7.202966 0.0687,-8.105033 -0.32212,-0.601873 -0.88666,-0.618963 -20.44576,-0.618963 -18.0466,0 -20.13447,0.05204 -20.30874,0.506172 -0.32711,0.85242 -0.21548,7.496224 0.13702,8.154864 0.30698,0.573591 0.71863,0.618964 5.61589,0.618964 5.90315,0 6.86143,0.246259 7.44229,1.912524 0.2054,0.589184 0.42843,6.798298 0.56634,15.766121 l 0.2275,14.794147 -1.89164,-1.660054 C 309.17124,69.899706 298.744,60.508935 287.04,49.944353 l -21.28,-19.208326 -17.00576,-0.008 c -15.21657,-0.0072 -17.0262,0.04524 -17.2,0.498158 -0.37866,0.986763 -0.21121,7.669431 0.20576,8.211764 0.33283,0.432893 1.24254,0.537203 5.41734,0.621161 5.64262,0.113479 6.45791,0.399879 7.2046,2.530874 0.49624,1.416234 0.58073,44.011538 0.0908,45.77539 -0.53494,1.925869 -0.81532,2.017978 -6.68059,2.194637 l -5.31215,0.16 -0.09,4.143075 c -0.0495,2.278694 -0.0181,4.330694 0.07,4.56 0.12905,0.33631 3.96492,0.416925 19.83877,0.416925 19.12833,0 19.68805,-0.01731 20.01004,-0.618963 z m 151.04,0 c 0.475,-0.887529 0.431,-7.793305 -0.0527,-8.277036 -0.2681,-0.26809 -2.00138,-0.384 -5.74214,-0.384 -5.2016,0 -5.38442,-0.02256 -6.256,-0.771773 L 410.4,89.016451 410.30362,81.27704 c -0.0861,-6.911596 -0.0369,-7.830201 0.45952,-8.588227 0.30569,-0.466848 6.57392,-7.710444 13.92934,-16.096879 10.64381,-12.135731 13.65683,-15.385215 14.76154,-15.919999 1.23964,-0.600096 1.95766,-0.671936 6.71574,-0.671936 4.93987,0 5.35184,-0.04506 5.65898,-0.618964 0.35251,-0.65864 0.46412,-7.302444 0.13702,-8.154864 -0.17418,-0.453881 -2.20371,-0.506172 -19.64576,-0.506172 -17.44205,0 -19.47158,0.05229 -19.64576,0.506172 -0.3271,0.85242 -0.21549,7.496224 0.13702,8.154864 0.29277,0.547079 0.69418,0.618964 3.456,0.618964 4.75853,0 4.94992,0.547836 1.56858,4.490217 -1.27827,1.490381 -4.90128,5.733782 -8.0511,9.429782 -3.14983,3.696 -5.904,6.72 -6.12039,6.72 -0.38585,0 -15.50937,-17.853513 -16.17145,-19.090623 -0.64048,-1.196781 0.13033,-1.549376 3.3871,-1.549376 2.13747,0 3.06432,-0.123732 3.33066,-0.444628 0.24758,-0.29832 0.33942,-1.798809 0.27916,-4.559999 L 394.4,30.879999 h -23.84 -23.84 l -0.0898,4.115373 c -0.0603,2.76119 0.0317,4.261679 0.27916,4.559999 0.28442,0.342676 1.44973,0.444628 5.08208,0.444628 4.99447,0 6.06199,0.206326 8.14618,1.574464 1.43904,0.944636 27.92358,30.80939 28.40077,32.025534 0.18435,0.469818 0.27011,3.801104 0.20777,8.071418 -0.13728,9.40422 0.44685,8.670275 -7.07398,8.888582 l -5.51216,0.16 -0.09,4.143075 c -0.0495,2.278694 -0.0179,4.330694 0.07,4.56 0.1294,0.337296 4.62124,0.416924 23.51875,0.416924 22.76665,0 23.3672,-0.01568 23.69005,-0.618963 z"
       id="path14"
       inkscape:connector-curvature="0" />
  </g>
</svg>
